<mxfile host="app.diagrams.net" modified="2023-06-11T18:44:29.987Z" agent="Mozilla/5.0 (Windows NT 10.0; Win64; x64) AppleWebKit/537.36 (KHTML, like Gecko) Chrome/114.0.0.0 Safari/537.36" etag="xQ943E8_H-SbijTqPVpw" version="21.3.8" type="github">
  <diagram name="Page-1" id="9f46799a-70d6-7492-0946-bef42562c5a5">
    <mxGraphModel dx="1195" dy="1513" grid="0" gridSize="10" guides="1" tooltips="1" connect="1" arrows="1" fold="1" page="1" pageScale="1" pageWidth="1100" pageHeight="850" background="#ffffff" math="0" shadow="0">
      <root>
        <mxCell id="0" />
        <mxCell id="1" parent="0" />
        <mxCell id="78961159f06e98e8-30" value="Professor" style="swimlane;fontStyle=0;align=center;verticalAlign=top;childLayout=stackLayout;horizontal=1;startSize=26;horizontalStack=0;resizeParent=1;resizeLast=0;collapsible=1;marginBottom=0;swimlaneFillColor=#ffffff;rounded=0;shadow=0;comic=0;labelBackgroundColor=none;strokeWidth=1;fillColor=none;fontFamily=Verdana;fontSize=12;strokeColor=#000000;movable=1;resizable=1;rotatable=1;deletable=1;editable=1;locked=0;connectable=1;fontColor=#080808;html=1;spacingTop=0;flipH=1;flipV=0;container=1;" parent="1" vertex="1">
          <mxGeometry x="430" y="80" width="160" height="230" as="geometry" />
        </mxCell>
        <mxCell id="78961159f06e98e8-129" style="edgeStyle=elbowEdgeStyle;html=1;labelBackgroundColor=none;startFill=0;startSize=8;endArrow=open;endFill=0;endSize=16;fontFamily=Verdana;fontSize=12;elbow=vertical;dashed=1;" parent="1" edge="1">
          <mxGeometry relative="1" as="geometry">
            <mxPoint x="360" y="632" as="sourcePoint" />
            <mxPoint x="250" y="632" as="targetPoint" />
          </mxGeometry>
        </mxCell>
        <mxCell id="78961159f06e98e8-130" style="edgeStyle=elbowEdgeStyle;html=1;labelBackgroundColor=none;startFill=0;startSize=8;endArrow=diamondThin;endFill=0;endSize=16;fontFamily=Verdana;fontSize=12;elbow=vertical;" parent="1" edge="1">
          <mxGeometry relative="1" as="geometry">
            <mxPoint x="550" y="617" as="sourcePoint" />
            <mxPoint x="520" y="617" as="targetPoint" />
          </mxGeometry>
        </mxCell>
        <mxCell id="i15EN86YlzW4GTnRnOII-3" value="" style="endArrow=none;html=1;rounded=0;" edge="1" parent="1">
          <mxGeometry width="50" height="50" relative="1" as="geometry">
            <mxPoint x="549" y="445" as="sourcePoint" />
            <mxPoint x="599" y="395" as="targetPoint" />
          </mxGeometry>
        </mxCell>
        <mxCell id="i15EN86YlzW4GTnRnOII-4" value="" style="endArrow=none;html=1;rounded=0;fontFamily=Helvetica;fontSize=12;fontColor=default;" edge="1" parent="1">
          <mxGeometry width="50" height="50" relative="1" as="geometry">
            <mxPoint x="549" y="445" as="sourcePoint" />
            <mxPoint x="599" y="395" as="targetPoint" />
          </mxGeometry>
        </mxCell>
        <mxCell id="78961159f06e98e8-19" value="" style="line;html=1;strokeWidth=1;fillColor=none;align=left;verticalAlign=middle;spacingTop=-1;spacingLeft=3;spacingRight=3;rotatable=0;labelPosition=right;points=[];portConstraint=eastwest;" parent="1" vertex="1">
          <mxGeometry x="85" y="318" width="160" height="8" as="geometry" />
        </mxCell>
        <mxCell id="i15EN86YlzW4GTnRnOII-8" value="&lt;span style=&quot;font-weight: normal;&quot;&gt;Fornecedor&lt;/span&gt;" style="swimlane;fontStyle=1;align=center;verticalAlign=top;childLayout=stackLayout;horizontal=1;startSize=26;horizontalStack=0;resizeParent=1;resizeLast=0;collapsible=1;marginBottom=0;swimlaneFillColor=#ffffff;rounded=0;shadow=0;comic=0;labelBackgroundColor=none;strokeWidth=1;fillColor=none;fontFamily=Verdana;fontSize=12;strokeColor=#000000;swimlaneLine=1;fontColor=#000000;html=1;container=0;movable=0;resizable=0;rotatable=0;deletable=0;editable=0;locked=1;connectable=0;swimlaneHead=1;separatorColor=#121212;allowArrows=1;backgroundOutline=0;" vertex="1" parent="1">
          <mxGeometry x="183" y="205" width="160" height="288" as="geometry">
            <mxRectangle x="190" y="212" width="111" height="26" as="alternateBounds" />
          </mxGeometry>
        </mxCell>
        <mxCell id="i15EN86YlzW4GTnRnOII-9" value="&lt;font color=&quot;#000000&quot;&gt;-Id: Integer&lt;br&gt;-Nome: String&lt;br&gt;-Senha: String&lt;br&gt;&lt;br&gt;+Login()&lt;br&gt;+Logout()&lt;br&gt;+AddNovoProf()&lt;br&gt;+GerenciarProf()&lt;br&gt;+AddNovoAluno()&lt;br&gt;+GerenciarAluno()&lt;br&gt;+AddMateria()&lt;br&gt;+AddPeriodo()&lt;br&gt;+GerenciarPeriodo()&lt;br&gt;+AddClasse()&lt;br&gt;+GerenciarClasse()&lt;br&gt;+GerarBoleto()&lt;br&gt;&lt;/font&gt;" style="text;html=1;strokeColor=none;fillColor=none;align=left;verticalAlign=top;spacingLeft=4;spacingRight=4;whiteSpace=wrap;overflow=hidden;rotatable=0;points=[[0,0.5],[1,0.5]];portConstraint=eastwest;movable=0;resizable=0;deletable=0;editable=0;locked=1;connectable=0;" vertex="1" parent="i15EN86YlzW4GTnRnOII-8">
          <mxGeometry y="26" width="160" height="239" as="geometry" />
        </mxCell>
        <mxCell id="78961159f06e98e8-31" value="&lt;font color=&quot;#000000&quot;&gt;-Id: Integer&lt;br&gt;-Nome: String&lt;br&gt;-Telefone: Integer&lt;br&gt;-Endereço: String&lt;br&gt;&amp;nbsp;&lt;br&gt;+Login()&lt;br&gt;+Logout()&lt;br&gt;+RegistraPresença()&lt;br&gt;+PreparaProva&lt;br&gt;+CorrigiProva()&lt;br&gt;+PreparaAtividade()&lt;br&gt;+CorrigiAtividade()&lt;br&gt;+RegistraNotaAtividade()&lt;br&gt;+RegistraNotaProva()&lt;br&gt;&lt;/font&gt;" style="text;html=1;strokeColor=none;fillColor=none;align=left;verticalAlign=top;spacingLeft=4;spacingRight=4;whiteSpace=wrap;overflow=hidden;rotatable=0;points=[[0,0.5],[1,0.5]];portConstraint=eastwest;shadow=0;rounded=0;glass=0;container=0;movable=0;resizable=0;deletable=0;editable=0;locked=1;connectable=0;" parent="1" vertex="1" collapsed="1">
          <mxGeometry x="430" y="102" width="161" height="212" as="geometry">
            <mxRectangle x="430" y="106" width="160" height="26" as="alternateBounds" />
          </mxGeometry>
        </mxCell>
        <mxCell id="i15EN86YlzW4GTnRnOII-19" value="" style="endArrow=none;dashed=1;html=1;rounded=0;fontFamily=Helvetica;fontSize=12;fontColor=default;" edge="1" parent="1">
          <mxGeometry width="50" height="50" relative="1" as="geometry">
            <mxPoint x="440" y="298" as="sourcePoint" />
            <mxPoint x="490" y="248" as="targetPoint" />
          </mxGeometry>
        </mxCell>
        <mxCell id="i15EN86YlzW4GTnRnOII-20" value="" style="endArrow=none;html=1;rounded=0;fontFamily=Helvetica;fontSize=12;fontColor=default;" edge="1" parent="1">
          <mxGeometry width="50" height="50" relative="1" as="geometry">
            <mxPoint x="440" y="298" as="sourcePoint" />
            <mxPoint x="490" y="248" as="targetPoint" />
          </mxGeometry>
        </mxCell>
        <mxCell id="i15EN86YlzW4GTnRnOII-81" value="" style="group" vertex="1" connectable="0" parent="1">
          <mxGeometry x="676" y="-161" width="160" height="52" as="geometry" />
        </mxCell>
        <mxCell id="i15EN86YlzW4GTnRnOII-80" value="&lt;font color=&quot;#0a0a0a&quot;&gt;- CPF: Integer&lt;/font&gt;" style="text;strokeColor=none;fillColor=none;align=left;verticalAlign=top;spacingLeft=4;spacingRight=4;overflow=hidden;rotatable=0;points=[[0,0.5],[1,0.5]];portConstraint=eastwest;whiteSpace=wrap;html=1;fontSize=12;fontFamily=Helvetica;fontColor=default;container=0;" vertex="1" parent="i15EN86YlzW4GTnRnOII-81">
          <mxGeometry y="26" width="160" height="26" as="geometry" />
        </mxCell>
        <mxCell id="i15EN86YlzW4GTnRnOII-77" value="&lt;font color=&quot;#0a0a0a&quot;&gt;Professor PF&lt;/font&gt;" style="swimlane;fontStyle=1;align=center;verticalAlign=top;childLayout=stackLayout;horizontal=1;startSize=26;horizontalStack=0;resizeParent=1;resizeParentMax=0;resizeLast=0;collapsible=1;marginBottom=0;whiteSpace=wrap;html=1;fontFamily=Helvetica;fontSize=12;fontColor=default;fillColor=none;gradientColor=none;strokeColor=#0D0D0D;swimlaneLine=1;container=0;movable=0;resizable=0;rotatable=0;deletable=0;editable=0;locked=1;connectable=0;" vertex="1" parent="1">
          <mxGeometry x="676" y="-161" width="160" height="52" as="geometry">
            <mxRectangle x="676" y="-161" width="110" height="26" as="alternateBounds" />
          </mxGeometry>
        </mxCell>
        <mxCell id="i15EN86YlzW4GTnRnOII-83" value="&lt;font color=&quot;#0a0a0a&quot;&gt;Professor PJ&lt;/font&gt;" style="swimlane;fontStyle=1;align=center;verticalAlign=top;childLayout=stackLayout;horizontal=1;startSize=26;horizontalStack=0;resizeParent=1;resizeParentMax=0;resizeLast=0;collapsible=1;marginBottom=0;whiteSpace=wrap;html=1;fontFamily=Helvetica;fontSize=12;fontColor=default;fillColor=none;gradientColor=none;strokeColor=#0D0D0D;swimlaneLine=1;container=0;movable=1;resizable=1;rotatable=1;deletable=1;editable=1;locked=0;connectable=1;" vertex="1" parent="1">
          <mxGeometry x="274" y="-161" width="160" height="52" as="geometry">
            <mxRectangle x="676" y="-161" width="110" height="26" as="alternateBounds" />
          </mxGeometry>
        </mxCell>
        <mxCell id="i15EN86YlzW4GTnRnOII-84" value="&lt;font color=&quot;#000000&quot;&gt;- CNPJ Integer&lt;/font&gt;" style="text;html=1;align=left;verticalAlign=middle;resizable=0;points=[];autosize=1;strokeColor=none;fillColor=none;movable=0;rotatable=0;deletable=0;editable=0;locked=1;connectable=0;" vertex="1" parent="i15EN86YlzW4GTnRnOII-83">
          <mxGeometry y="26" width="160" height="26" as="geometry" />
        </mxCell>
        <mxCell id="i15EN86YlzW4GTnRnOII-87" value="" style="endArrow=classic;html=1;rounded=0;" edge="1" parent="1">
          <mxGeometry width="50" height="50" relative="1" as="geometry">
            <mxPoint x="436" y="213" as="sourcePoint" />
            <mxPoint x="486" y="163" as="targetPoint" />
          </mxGeometry>
        </mxCell>
        <mxCell id="i15EN86YlzW4GTnRnOII-89" value="" style="endArrow=classic;html=1;rounded=0;strokeColor=#000000;movable=0;resizable=0;rotatable=0;deletable=0;editable=0;locked=1;connectable=0;" edge="1" parent="1">
          <mxGeometry width="50" height="50" relative="1" as="geometry">
            <mxPoint x="219" y="205" as="sourcePoint" />
            <mxPoint x="194" y="115" as="targetPoint" />
          </mxGeometry>
        </mxCell>
        <mxCell id="i15EN86YlzW4GTnRnOII-90" value="&lt;font face=&quot;Verdana&quot; color=&quot;#0a0a0a&quot;&gt;&lt;span style=&quot;font-weight: 400;&quot;&gt;Fornecedor PJ&lt;/span&gt;&lt;/font&gt;" style="swimlane;fontStyle=1;align=center;verticalAlign=top;childLayout=stackLayout;horizontal=1;startSize=26;horizontalStack=0;resizeParent=1;resizeParentMax=0;resizeLast=0;collapsible=1;marginBottom=0;whiteSpace=wrap;html=1;fontFamily=Helvetica;fontSize=12;fontColor=default;fillColor=none;gradientColor=none;strokeColor=#0D0D0D;swimlaneLine=1;container=0;movable=0;resizable=0;rotatable=0;deletable=0;editable=0;locked=1;connectable=0;" vertex="1" parent="1">
          <mxGeometry x="91" y="62" width="160" height="52" as="geometry">
            <mxRectangle x="676" y="-161" width="110" height="26" as="alternateBounds" />
          </mxGeometry>
        </mxCell>
        <mxCell id="i15EN86YlzW4GTnRnOII-91" value="&lt;font color=&quot;#000000&quot;&gt;- CNPJ Integer&lt;/font&gt;" style="text;html=1;align=left;verticalAlign=middle;resizable=1;points=[];autosize=1;strokeColor=none;fillColor=none;movable=1;rotatable=1;deletable=1;editable=1;locked=0;connectable=1;" vertex="1" parent="i15EN86YlzW4GTnRnOII-90">
          <mxGeometry y="26" width="160" height="26" as="geometry" />
        </mxCell>
        <mxCell id="i15EN86YlzW4GTnRnOII-92" value="" style="endArrow=classic;html=1;rounded=0;strokeColor=#000000;entryX=0.75;entryY=1;entryDx=0;entryDy=0;movable=0;resizable=0;rotatable=0;deletable=0;editable=0;locked=1;connectable=0;" edge="1" parent="1" target="i15EN86YlzW4GTnRnOII-83">
          <mxGeometry width="50" height="50" relative="1" as="geometry">
            <mxPoint x="455" y="80" as="sourcePoint" />
            <mxPoint x="430" y="-10" as="targetPoint" />
          </mxGeometry>
        </mxCell>
        <mxCell id="i15EN86YlzW4GTnRnOII-93" value="" style="endArrow=classic;html=1;rounded=0;strokeColor=#000000;exitX=0.75;exitY=0;exitDx=0;exitDy=0;movable=0;resizable=0;rotatable=0;deletable=0;editable=0;locked=1;connectable=0;" edge="1" parent="1" source="78961159f06e98e8-30">
          <mxGeometry width="50" height="50" relative="1" as="geometry">
            <mxPoint x="465" y="90" as="sourcePoint" />
            <mxPoint x="691" y="-108" as="targetPoint" />
            <Array as="points" />
          </mxGeometry>
        </mxCell>
        <mxCell id="i15EN86YlzW4GTnRnOII-94" value="" style="endArrow=none;html=1;rounded=0;strokeColor=#000000;" edge="1" parent="1">
          <mxGeometry width="50" height="50" relative="1" as="geometry">
            <mxPoint x="343" y="403" as="sourcePoint" />
            <mxPoint x="440" y="310" as="targetPoint" />
            <Array as="points">
              <mxPoint x="431" y="383" />
            </Array>
          </mxGeometry>
        </mxCell>
        <mxCell id="i15EN86YlzW4GTnRnOII-95" value="&lt;font color=&quot;#000000&quot;&gt;Fornece&lt;/font&gt;" style="text;html=1;align=center;verticalAlign=middle;resizable=0;points=[];autosize=1;strokeColor=none;fillColor=none;movable=0;rotatable=0;deletable=0;editable=0;locked=1;connectable=0;" vertex="1" parent="1">
          <mxGeometry x="376" y="399" width="62" height="26" as="geometry" />
        </mxCell>
        <mxCell id="i15EN86YlzW4GTnRnOII-96" value="&lt;font color=&quot;#0a0a0a&quot;&gt;+0&lt;/font&gt;" style="text;html=1;align=center;verticalAlign=middle;resizable=0;points=[];autosize=1;strokeColor=none;fillColor=none;movable=0;rotatable=0;deletable=0;editable=0;locked=1;connectable=0;" vertex="1" parent="1">
          <mxGeometry x="387" y="362" width="32" height="26" as="geometry" />
        </mxCell>
      </root>
    </mxGraphModel>
  </diagram>
</mxfile>
